<svg width="51" height="50" viewBox="0 0 51 50" fill="none" xmlns="http://www.w3.org/2000/svg">
<path d="M0.568359 25.9083C36.5684 28.8577 45.5684 43.1131 45.5684 49.8722" stroke="black" stroke-width="2"/>
<path d="M0.568359 25.9083C36.5684 22.9589 47.5684 8.70351 47.5684 1.94447" stroke="black" stroke-width="2"/>
<path d="M37.4744 20.9705C37.0331 22.8233 36.9547 24.6598 34.5633 24.6598C33.4784 24.6598 30.9496 24.2954 30.1967 25.1629C29.7124 25.7209 27.2033 26.3367 26.3759 26.3367C25.5403 26.3367 24.7047 26.3367 23.8691 26.3367C23.3019 26.3367 25.1041 26.4024 25.547 26.0759C26.0187 25.7281 26.7264 25.8174 27.2856 25.3306C27.9187 24.7794 28.4266 24.1298 29.0242 23.5791C30.2064 22.4894 31.1017 22.6726 32.5417 22.2934C33.8388 21.9519 34.745 20.5607 36.0189 20.0389C36.7076 19.7567 37.3341 19.9374 38.0404 19.5544C38.683 19.206 39.134 18.481 39.8397 18.1197C41.6949 17.1697 41.3748 19.2153 40.7292 20.5047C39.7721 22.4159 38.5661 24.18 38.5661 26.3367C38.5661 28.6894 36.4539 29.0718 33.9164 29.0198C32.337 28.9875 31.4808 28.0092 30.1967 27.4174C29.6046 27.1446 28.4853 27.3429 27.8314 27.3429C27.1037 27.3429 26.3759 27.3429 25.6481 27.3429C24.2475 27.3429 25.877 27.0075 26.3759 27.0075C28.0245 27.0075 30.1175 27.5611 31.3692 28.6099C32.4829 29.543 33.6196 30.448 34.5633 31.5352C35.3516 32.4434 37.8023 32.3516 38.9299 33.0445" stroke="black" stroke-width="3" stroke-linecap="round"/>
<path d="M39.2243 27.0594C36.0057 27.4813 32.7978 27.7217 29.5495 27.7217C28.8016 27.7217 27.9262 27.798 27.194 27.6052C27.0134 27.5576 26.5307 27.355 26.4155 27.2311C26.0506 26.8388 26.9498 26.8242 27.2871 26.6791C28.0568 26.3481 28.5695 25.8288 29.1902 25.2686C30.4477 24.1334 31.9001 23.2124 33.1426 22.0672C33.4542 21.78 33.6711 21.2293 34.1008 21.0737C34.7647 20.8333 35.3036 20.3051 35.9905 20.1292C36.4147 20.0206 37.1714 19.4458 37.6007 19.5589C37.9238 19.644 37.0016 20.3364 36.9287 20.3868C36.2874 20.8301 35.6644 21.3074 35.0323 21.7606C34.5151 22.1314 33.8425 22.3053 33.3821 22.7296C33.1606 22.9338 32.176 23.5724 32.1578 23.858C32.1115 24.5838 32.8824 25.0539 33.3555 25.5384C34.3752 26.5827 35.1753 27.7174 35.9639 28.9115C36.3613 29.5133 36.8723 30.0121 37.3745 30.5367C37.7182 30.8957 38.3956 31.2542 37.5475 31.2542C36.527 31.2542 35.5809 31.1101 34.6796 30.6532C34.3073 30.4645 33.769 30.1986 33.3555 30.1442C32.7534 30.0649 32.1729 29.8191 31.559 29.8191C30.9249 29.8191 30.3936 29.495 29.9753 29.0709C29.0719 28.155 32.0095 28.0401 32.577 27.7217C34.3426 26.7312 34.9433 24.6735 35.691 23.0301C36.5012 21.2495 37.9325 19.3419 40.2756 19.4424C41.0784 19.4768 40.6 22.2626 40.4619 22.705C40.0419 24.0508 39.4222 25.3589 38.7718 26.6178C38.4513 27.2382 38.4259 28.2709 38.3925 28.9483C38.3393 30.0275 38.5127 31.3775 39.0446 32.3581C39.3046 32.8373 39.6485 33.2589 40.1825 33.505C40.7261 33.7555 40.8348 33.6929 41.0142 34.2716C41.283 35.1388 40.6615 32.4873 40.6615 31.5854C40.6615 30.1558 40.9011 28.7202 40.9011 27.2801C40.9011 26.7628 40.7813 26.2574 40.7813 25.7347C40.7813 25.4405 40.7172 24.6403 40.9011 25.3606C41.2097 26.5693 41.2907 27.6478 41.1406 28.8931C41.019 29.9016 41.0208 28.9385 41.0208 28.5251C41.0208 26.9562 41.196 25.4264 41.2604 23.8825C41.3338 22.1221 41.979 20.3703 41.979 18.5838C41.979 17.9132 42.1311 17.0773 41.9724 16.4189C41.9252 16.2235 41.5871 16.813 41.5665 16.842C41.166 17.406 40.7851 17.9826 40.3754 18.5408C39.6626 19.5121 38.7016 20.2763 37.6606 20.9388C36.317 21.7939 34.7883 22.3709 33.3821 23.1343C31.877 23.9515 30.3061 24.8581 28.5647 25.1827C27.5405 25.3736 26.4648 25.2931 25.424 25.2931C24.7898 25.2931 23.7975 25.2807 23.2282 25.5139C22.8532 25.6675 21.64 25.8451 22.0505 25.8451C22.5509 25.8451 23 25.7971 23.501 25.7347C26.0582 25.4162 28.7906 25.4721 31.3593 25.5875C32.9577 25.6593 34.6174 25.7035 36.1901 26.0045C37.6737 26.2885 39.1241 26.9094 40.4553 27.5623C41.0421 27.85 42.4831 28.437 42.691 29.1077C42.844 29.6012 42.4639 30.3153 42.4581 30.8249C42.4454 31.9375 42.5632 33.3345 42.2186 34.4065C42.0858 34.8193 41.979 35.3717 41.979 35.8048C41.979 36.3319 42.2186 36.8303 42.2186 37.3257" stroke="#323249" stroke-width="3" stroke-linecap="round"/>
<path d="M35.0747 31.8586C35.9477 32.1631 37.0736 32.6153 37.3651 33.4885C37.4379 33.7063 37.4301 33.8826 37.4441 34.1153C37.4696 34.5379 38.3129 34.4593 38.3129 35.0253C38.3129 35.6443 38.956 35.6876 39.1642 36.1536C39.2365 36.3156 38.6863 36.1106 38.6288 36.0444C38.5598 35.9649 38.3583 35.9543 38.3173 35.822C38.0805 35.0582 37.4318 34.9129 36.8474 34.3741C36.4523 34.01 35.8759 33.9781 35.4696 33.6785C35.2182 33.4932 34.8037 33.3769 34.5174 33.2054C34.1795 33.0029 33.85 32.7848 33.5389 32.5502C33.3492 32.4071 33.1172 32.2932 32.9422 32.1498C32.7652 32.0049 32.3776 32.0709 32.1524 32.0204C31.6234 31.9018 31.0391 31.7061 30.6473 31.345C30.4915 31.2014 30.1841 30.5887 29.9672 30.5524C29.203 30.4243 28.4083 30.423 27.7294 30.0549C26.9881 29.653 26.1253 29.4835 25.3468 29.1247C24.6307 28.7947 23.9303 28.4982 23.2406 28.1137C22.8032 27.8698 22.3876 27.5501 21.8848 27.4343C21.4876 27.3427 21.0821 27.2839 20.7 27.1431C20.2989 26.9952 19.7562 26.9707 19.331 26.8761C18.7766 26.7528 18.1894 26.5926 17.6242 26.5405C16.8725 26.4712 16.2009 26.1805 15.4434 26.1805C15.2606 26.1805 15.0777 26.1805 14.8949 26.1805C14.5418 26.1805 14.5798 26.1356 14.8203 25.9945C15.1882 25.7787 15.7558 25.671 16.0401 25.3434C16.2098 25.1479 16.7301 25.1614 16.9879 25.1614C17.4013 25.1614 17.4404 24.8407 17.7382 24.6882C18.0183 24.5448 18.2336 24.4334 18.5675 24.4334C18.9511 24.4334 19.3284 24.2878 19.6733 24.2878C19.9685 24.2878 20.1651 24.2473 20.4456 24.1584C20.8214 24.0393 21.207 23.9475 21.6039 23.9239C21.9402 23.9039 22.2768 23.8859 22.6132 23.8672C22.7387 23.8603 23.0976 23.8065 22.9905 23.8672C22.7095 24.0266 22.3527 24.1262 22.0471 24.2919C21.5644 24.5536 21.0412 24.8577 20.5904 25.1654C19.8646 25.661 19.305 25.8894 18.4096 25.8894C18.0932 25.8894 17.8595 25.9407 17.5496 26.0309C17.2689 26.1126 16.7936 26.094 16.5535 26.2169C16.1441 26.4266 17.2999 26.7472 17.5583 26.6739C17.747 26.6204 18.5579 26.3878 18.7255 26.5809C18.8524 26.7271 19.252 26.8975 19.4363 26.9975C19.5765 27.0735 19.6125 27.2725 19.7918 27.2725C20.0025 27.2725 20.1482 27.244 20.3446 27.2037C20.5778 27.156 21.1483 27.1356 21.3143 27.2887C21.423 27.3888 21.6279 27.3593 21.7663 27.4585C21.9332 27.5782 22.073 27.6945 22.2402 27.8144C22.3591 27.8997 22.6096 27.8549 22.7536 27.8549C22.9796 27.8549 23.1546 27.9579 23.3854 28.0004" stroke="#323249" stroke-linecap="round"/>
<path d="M24.6484 23.1231C24.9627 22.9037 25.3197 22.6135 25.7147 22.6135C25.8726 22.6135 26.0306 22.6135 26.1886 22.6135C26.3685 22.6135 26.451 22.4679 26.623 22.4679C27.1996 22.4679 27.7778 22.0255 28.3606 21.9584C28.9562 21.8897 29.3607 21.1476 29.9402 21.0848C30.2424 21.052 30.6956 20.9 30.8924 20.6885C31.0047 20.5677 31.3741 20.4046 31.5286 20.3205C32.5562 19.7608 33.4717 19.0342 34.4421 18.3914" stroke="#323249" stroke-linecap="round"/>
<path d="M39.1018 16.6444C38.6199 17.2644 38.0003 17.866 37.6319 18.5452C37.4724 18.8391 37.1419 19.2192 36.8903 19.4511C36.8102 19.5249 36.6926 19.5282 36.6183 19.5967C36.541 19.6679 36.8338 19.6409 36.943 19.6371C37.6342 19.6133 38.2917 19.6252 38.9614 19.8151C40.5929 20.2778 40.7601 21.5938 41.2343 22.9049" stroke="#323249" stroke-linecap="round"/>
<path d="M43.6045 22.7592C43.7076 23.4559 44.0395 24.081 44.153 24.7611C44.2777 25.5078 44.3154 26.2524 44.3154 27.0259C44.3154 27.7271 44.2048 28.625 44.4733 29.2947C44.495 29.3488 44.6299 29.5553 44.6927 29.4079C44.921 28.8725 45.0061 28.2519 45.1183 27.6932C45.4079 26.2523 45.585 24.7991 45.8116 23.3497C45.8237 23.2727 45.9851 22.1943 46.0354 22.3953C46.1511 22.8574 46.124 23.3725 46.1495 23.8431C46.2121 24.9967 46.258 26.1503 46.2943 27.3049C46.3417 28.8137 46.4744 30.3245 46.4435 31.8345C46.4342 32.2904 46.3689 32.746 46.3689 33.2014C46.3689 33.3069 46.3244 32.9944 46.3075 32.89C45.8868 30.3055 45.4565 27.7141 45.1754 25.113C45.0367 23.8301 44.8695 19.9637 44.9516 21.2507C45.056 22.8859 45.4886 24.5106 45.6405 26.1483C45.6701 26.4675 45.7251 26.7909 45.737 27.1108C45.7528 27.5316 45.8475 26.2749 45.9038 25.8571C46.0977 24.4172 46.1952 22.9675 46.404 21.5298C46.4706 21.0711 46.3914 20.3073 46.6234 19.8797C46.6582 19.8156 46.6684 20.399 46.6673 20.4136C46.574 21.5997 46.1541 22.7444 45.7151 23.8552C45.7051 23.8805 45.2141 25.2228 44.9955 25.1453C44.8827 25.1053 44.8338 24.4059 44.8331 24.4012C44.697 23.4673 44.5925 22.5292 44.5699 21.5864C44.521 19.5532 44.9266 17.8177 46.0354 16.0782C46.081 16.0067 46.3713 15.5765 46.5093 15.8355C46.6676 16.1327 46.6274 16.6929 46.6365 16.9841C46.6738 18.171 46.6212 19.3598 46.5181 20.543C46.415 21.7255 46.2664 22.9179 46.0925 24.0938C46.0165 24.607 45.9896 24.6746 45.8774 24.1262C45.3606 21.5977 45.4917 19.0384 45.737 16.4947C45.7609 16.2473 45.8298 15.9911 45.9126 15.7546C46.2853 14.6896 46.2522 13.5325 46.483 12.4384C46.4838 12.4346 46.5561 12.0466 46.5225 12.2483C46.4577 12.6363 46.2451 13.0362 46.0793 13.3928C45.4322 14.7845 44.5672 16.0427 43.5782 17.251C43.5152 17.3279 42.7606 18.3684 42.8235 17.89C42.9199 17.1568 43.3461 16.4661 43.6835 15.8113C44.0714 15.0584 44.4375 14.2956 44.8331 13.5465C45.1397 12.9661 45.3278 12.3262 45.6932 11.7751C45.9085 11.4503 46.0434 11.4589 45.7721 11.8398C45.2713 12.5433 44.8388 13.5132 44.1135 14.0601C43.7361 14.3447 43.3791 14.5619 43.0517 14.8973C42.7458 15.2105 42.7373 15.6965 42.4198 15.9892C42.2039 16.1882 41.8345 16.4857 41.709 16.7172" stroke="#323249" stroke-linecap="round"/>
<path d="M43.6833 31.0577C44.2076 33.1436 44.7196 35.0257 46.2151 36.6994C47.0488 37.6326 47.877 38.5609 48.6416 39.5425C49.0256 40.0355 48.3091 39.2348 48.2247 39.1381C46.9973 37.7317 46.1808 35.9837 45.2454 34.4064C44.5486 33.2313 43.8563 31.8389 43.5692 30.5158C43.4184 29.8207 43.7973 30.4257 43.9992 30.7261C45.1313 32.4102 46.4115 33.9988 47.5358 35.6884C48.2751 36.7994 48.9269 38.0198 49.8263 39.033C49.8347 39.0425 50.1234 39.323 49.9799 39.1907C49.5131 38.7604 49.0763 38.3041 48.5977 37.8844C47.3649 36.8031 46.148 35.725 44.7715 34.7946C43.6959 34.0676 42.2764 33.824 40.9672 33.824C40.6042 33.824 39.9809 33.649 39.9712 34.1152C39.9354 35.8302 41.9446 36.6216 43.1129 37.6984C43.321 37.8902 43.4156 38.0986 43.5078 38.3535C43.9782 39.6543 45.4845 40.2593 46.553 41.0874C46.5736 41.1034 46.6087 41.1687 46.6056 41.1441C46.5193 40.4543 46.359 39.7443 46.2283 39.0653C45.9737 37.7427 45.8096 36.3403 45.0786 35.1546C44.6582 34.4725 44.9735 35.6839 45.026 35.8704C45.2849 36.7897 45.3958 37.7447 45.8904 38.5881C46.2341 39.1741 46.6271 39.7968 46.8426 40.4323C47.2068 41.5067 47.6316 42.7826 47.334 43.9103C47.2154 44.3596 47.0005 44.7452 47.0005 45.2125C47.0005 45.9966 46.5981 43.678 46.237 42.968C46.0355 42.5718 45.7488 42.2041 45.5613 41.8154C45.4329 41.5491 45.1394 41.2358 44.9514 40.9904C44.8387 40.8433 44.7336 40.7064 44.6135 40.5617C44.1408 39.992 43.1831 39.5991 42.9725 38.9197" stroke="#323249" stroke-linecap="round"/>
<path d="M43.209 39.2107C43.2163 39.4882 43.209 39.702 43.209 39.9387C43.209 40.1134 43.2575 40.1928 43.4064 40.3026C43.64 40.4749 43.8574 40.7662 44.0602 40.974C44.2678 41.1866 44.4756 41.4586 44.5561 41.7181C44.599 41.8567 44.7926 42.0072 44.85 42.1792C44.9044 42.342 44.9131 42.5201 45.065 42.6321C45.2491 42.7678 45.3957 43.1343 45.5609 43.3035C45.7948 43.543 45.7982 43.8715 46.0918 44.088C46.347 44.2762 46.4507 44.6173 46.6491 44.8524C46.8091 45.0421 47.0443 45.1886 47.1581 45.3984C47.4113 45.8652 47.392 46.3983 47.746 46.8179C47.8165 46.9014 47.7967 47.0542 47.825 47.1536C47.9322 47.5303 47.9742 47.8976 48.1848 48.2374" stroke="#323249" stroke-linecap="round"/>
<path d="M48.2631 8.85501C47.6168 9.552 46.8577 10.2418 46.2711 10.9823C45.8841 11.4707 45.5772 12.0403 45.1214 12.4786C44.8304 12.7586 44.5061 13.0509 44.1912 13.2996C43.7523 13.6463 43.2338 14.1188 42.8924 14.5493C42.7277 14.757 42.3795 15.269 42.1377 15.3703C41.7375 15.5379 41.7867 15.3779 41.7867 15.0791C41.7867 14.9702 41.7586 14.8239 41.7911 14.7191C41.8034 14.6794 41.9944 14.6021 42.0412 14.5331C42.1497 14.373 42.4016 14.2984 42.5414 14.1327C42.6113 14.0499 42.6829 13.8554 42.7783 13.8051C42.9048 13.7385 43.044 13.6978 43.1469 13.6029C43.2952 13.4663 43.4193 13.3605 43.5067 13.1904C43.5822 13.0436 43.5545 12.8309 43.6822 12.7132C43.7673 12.6348 43.9353 12.6036 43.9981 12.5312C44.1461 12.3608 44.4486 12.3553 44.6124 12.1875C44.8094 11.9857 44.9705 11.6614 45.2224 11.4757C46.1468 10.794 46.7894 9.81392 47.4295 8.91163C47.7955 8.39557 47.982 7.80472 48.2631 7.24945C48.5849 6.61397 48.9937 6.19619 49.4479 5.65198" stroke="#323249" stroke-linecap="round"/>
<path d="M14.0443 25.6494C13.7116 25.7708 13.365 25.8356 13.0393 25.9213C12.8676 25.9665 12.7502 25.987 12.545 25.987C12.0808 25.987 11.6349 26.0882 11.1697 26.0882C11.0283 26.0882 10.8959 25.987 10.7486 25.987C10.5428 25.987 10.3395 25.9195 10.126 25.9195C9.86876 25.9195 9.61761 25.852 9.35907 25.852C9.2791 25.852 9.228 25.8182 9.34076 25.8182C9.45469 25.8182 9.56862 25.8182 9.68255 25.8182C10.0075 25.8182 10.3176 25.852 10.6387 25.852C10.7138 25.852 10.9724 25.7882 11.0334 25.7432C11.0881 25.7028 11.1621 25.7045 11.2246 25.6757C11.33 25.6271 11.3952 25.5477 11.5176 25.5219C11.845 25.453 12.1725 25.3797 12.4982 25.2932C12.8733 25.1936 13.2401 25.1176 13.6212 25.0344C13.8596 24.9824 14.0917 24.9332 14.3291 24.8732C14.5458 24.8184 14.8008 24.7415 15.0249 24.7382C15.4782 24.7314 15.854 24.7595 16.2781 24.6031" stroke="#323249" stroke-width="0.5" stroke-linecap="round"/>
<path d="M12.3594 25.8859C12.6274 26.1232 12.8513 26.2571 13.2016 26.2571C13.393 26.2571 13.637 26.0867 13.8242 26.1634C13.9252 26.2048 14.0349 26.1776 14.1334 26.2159C14.2459 26.2596 14.4399 26.2498 14.5626 26.274C14.91 26.3426 15.2779 26.358 15.6307 26.3996C15.8962 26.4309 16.1638 26.4704 16.4058 26.5778C16.5681 26.6498 16.7394 26.754 16.9165 26.7897C17.1947 26.8456 17.5588 26.9138 17.8157 27.0259C17.987 27.1007 18.1413 27.1853 18.3283 27.2284C18.4983 27.2676 18.7178 27.4298 18.8776 27.4384C19.1891 27.4553 19.4895 27.5256 19.7931 27.5997C20.2633 27.7144 20.6956 27.9264 21.1684 28.0385C21.2957 28.0687 21.4594 28.1073 21.5875 28.1135C21.7178 28.1198 21.8418 28.0957 21.9537 28.1472" stroke="#323249" stroke-width="0.5" stroke-linecap="round"/>
<path d="M43.2386 23.4078C42.0646 23.9738 40.8461 24.3303 39.5792 24.6615C38.28 25.0011 36.6027 25.5992 35.2165 25.3554C34.8032 25.2827 34.3048 24.9466 34.1199 24.574C33.5543 23.4348 33.7894 22.0699 34.9185 21.3669C35.5657 20.964 35.7693 20.6789 36.1045 19.95C36.1823 19.7809 36.5754 19.4326 36.5754 19.2678C36.5754 19.1594 36.1135 19.2194 36.2655 19.2094C36.497 19.1943 36.6482 18.8046 36.9091 18.7896C37.2168 18.7719 37.5352 18.4747 37.821 18.4747C38.5636 18.4747 39.1688 18.0195 39.6984 17.5301C39.9296 17.3164 40.2654 17.0503 40.5566 16.9237C40.7202 16.8526 40.8335 16.9256 40.9619 16.7721C41.1555 16.5406 41.18 16.2613 41.5222 16.1656C41.8207 16.0822 42.4386 15.7569 42.595 15.4892C42.6 15.4805 42.9548 15.1277 42.8512 15.1277C42.6614 15.1277 42.3342 15.4178 42.2135 15.5359C42.0658 15.6805 41.9668 15.8939 41.8202 16.0374C41.6396 16.214 41.4501 16.1334 41.3076 16.3756C41.1901 16.5752 40.9144 16.7818 40.6639 16.7954C40.5629 16.8009 40.4961 16.8024 40.4017 16.842C40.3947 16.845 40.9061 16.1503 41.0215 16.0374C41.523 15.5467 42.4602 15.125 43.1314 14.9061" stroke="#323249" stroke-width="3" stroke-linecap="round"/>
<path d="M39.1837 35.6585C39.4283 35.5651 39.7144 35.4052 39.9786 35.3654C40.0043 35.3616 40.0332 35.369 40.0573 35.3572C40.0748 35.3487 39.6156 35.1483 39.5787 35.1313C38.972 34.8523 38.3975 34.4861 37.8884 34.0605C37.419 33.6681 36.9307 33.2968 36.4626 32.9013C35.8444 32.3789 35.0462 31.9982 34.3105 31.6569C34.1668 31.5903 33.744 31.3859 33.8988 31.4212C34.4562 31.5482 35.0072 31.7206 35.5522 31.8894C37.1202 32.3751 38.6808 32.8815 40.2514 33.3597C42.8102 34.1388 45.3637 34.9465 47.8658 35.8877C48.072 35.9653 48.3406 36.0699 48.5486 36.1595C48.6272 36.1934 48.7716 36.2391 48.8231 36.3216C48.9385 36.5064 48.9571 36.7657 48.9737 36.9749C49.0118 37.4553 49.1269 38.0837 48.4449 38.049C47.9987 38.0262 47.5582 37.7472 47.1446 37.6036C46.8944 37.5168 46.6348 37.4484 46.3731 37.4039C45.9475 37.3314 45.5219 37.0406 45.1481 36.8374" stroke="#323249" stroke-width="3" stroke-linecap="round"/>
<path d="M40.4797 35.5699C40.4797 35.7773 40.5001 35.9873 40.4428 36.1888C40.3974 36.3489 40.4035 36.2769 40.5098 36.2249C40.6388 36.1618 40.6782 36.3067 40.7809 36.3067" stroke="#323249" stroke-width="3" stroke-linecap="round"/>
<path d="M41.1117 35.6289C41.1117 35.9771 41.1117 36.3253 41.1117 36.6735C41.1117 36.7149 41.1011 36.7787 41.1134 36.8209C41.12 36.8436 41.1675 36.8797 41.1853 36.8962C41.2712 36.9755 41.3791 36.9551 41.4882 36.9551C41.5776 36.9551 41.6912 37.1222 41.7292 37.1909C41.8266 37.3668 41.9921 37.4965 42.1593 37.6035C42.4123 37.7653 42.6896 37.9067 42.8438 38.1782C42.901 38.2789 42.9674 38.3213 43.0831 38.3419C43.154 38.3545 43.1341 38.4161 43.1667 38.4516C43.2028 38.4908 43.2697 38.5065 43.3107 38.5466" stroke="#323249" stroke-width="3" stroke-linecap="round"/>
<path d="M24.5749 23.811C24.2395 23.9141 23.8983 24.1352 23.539 24.1352C23.3848 24.1352 23.3239 24.1532 23.2327 24.2678C23.1517 24.3698 23.1207 24.4309 23.0085 24.4954C22.8093 24.6101 22.6938 24.8763 22.5566 25.0488" stroke="#323249" stroke-width="3" stroke-linecap="round"/>
<path d="M26.6534 28.2022C27.2057 28.3861 27.8623 28.5006 28.3587 28.8244C28.5009 28.9172 28.6407 28.9638 28.7921 29.034C28.8216 29.0477 28.9049 29.0864 28.8356 29.0864C28.7523 29.0864 28.6779 29.0632 28.6013 29.0307C28.1318 28.8318 27.688 28.6488 27.1922 28.5101C26.631 28.3529 26.0821 28.2095 25.5405 27.9976C25.2502 27.884 24.9447 27.7648 24.7188 27.5473C24.596 27.4291 24.4867 27.2981 24.3356 27.2149C24.2593 27.173 24.1517 27.1369 24.123 27.0529" stroke="#323249" stroke-width="3" stroke-linecap="round"/>
<path d="M18.2484 25.4908C18.5245 25.4908 18.8006 25.4908 19.0768 25.4908C19.1058 25.4908 19.1928 25.4908 19.1638 25.4908C19.0528 25.4908 18.9031 25.6412 18.804 25.6906C18.6681 25.7583 18.5287 25.8231 18.3856 25.874C18.2713 25.9146 18.194 26.0213 18.0609 26.0213C18.0068 26.0213 17.6191 26.0903 17.6191 26.005C17.6191 25.8257 18.6114 25.713 18.7103 25.7037C19.0845 25.6684 19.4083 25.5498 19.7846 25.5498" stroke="#323249" stroke-width="3" stroke-linecap="round"/>
<path d="M15.3867 25.9033C15.0853 25.8997 14.7844 25.8738 14.483 25.8738C14.4432 25.8738 14.2527 25.9036 14.2738 25.8312C14.3135 25.6954 14.6287 25.7015 14.7307 25.6675C14.848 25.6284 14.9768 25.6085 15.1006 25.6085C15.1699 25.6085 15.2336 25.6163 15.2964 25.5856C15.3294 25.5695 15.1334 25.5944 15.2227 25.507C15.2695 25.4612 15.6564 25.3604 15.4168 25.4776C15.2217 25.573 14.9255 25.5976 14.7073 25.6364C14.5443 25.6654 14.3916 25.6595 14.227 25.6953C14.1206 25.7185 14.0239 25.7558 13.9241 25.7837C13.8507 25.8042 13.7671 25.8 13.6931 25.8214C13.6141 25.8443 13.565 25.9136 13.5024 25.9311C13.3586 25.9713 13.1571 25.9545 13.007 25.9622C12.7945 25.9731 12.558 26.0809 12.3376 26.0146C12.2534 25.9892 12.1669 25.9529 12.0933 25.9049C12.0637 25.8856 12.1642 25.897 12.1987 25.8885C12.3248 25.8577 12.4659 25.8672 12.5953 25.8509C12.7003 25.8376 12.7843 25.8473 12.8731 25.8721C12.9528 25.8944 13.0492 25.8497 13.1275 25.8803C13.2045 25.9105 13.2775 25.9129 13.3551 25.9475C13.4264 25.9792 13.5099 25.9401 13.5793 25.9688C13.709 26.0221 13.8632 26.0427 14.0011 26.0506C14.1026 26.0565 14.2075 26.1685 14.3023 26.1685C14.4045 26.1685 14.5686 26.1795 14.6638 26.2209C14.7786 26.2708 14.92 26.2586 15.0403 26.2847C15.1709 26.3131 15.3111 26.3095 15.4336 26.3437C15.6908 26.4156 15.9661 26.4417 16.2436 26.491C16.305 26.502 16.3832 26.4741 16.441 26.4992C16.499 26.5244 16.5749 26.566 16.6368 26.5795C16.7379 26.6014 16.8181 26.6564 16.9163 26.6924C16.949 26.7044 16.6958 26.6899 16.6519 26.6842C15.9622 26.5955 15.0042 26.3968 14.6521 25.7608C14.6256 25.713 14.4988 25.5912 14.5148 25.5365C14.5246 25.503 14.8674 25.474 14.8981 25.4677C15.1003 25.4265 15.2928 25.4317 15.5005 25.4317C15.8268 25.4317 16.1503 25.4082 16.4645 25.3204C16.5889 25.2856 16.7098 25.2303 16.8326 25.1959C16.9379 25.1665 17.0209 25.0616 17.1339 25.0486C17.1585 25.0458 17.2665 24.9914 17.2661 24.9913C17.1851 24.9596 17.0376 24.9973 16.9598 25.0126C16.9227 25.0198 16.654 25.0781 16.8192 25.0781C16.934 25.0781 17.041 25.0706 17.1523 25.0371C17.741 24.8599 18.2596 24.4934 18.8341 24.2758C19.6568 23.9642 20.5366 23.6017 21.4163 23.4882C21.6802 23.4542 21.9457 23.4455 22.2113 23.4277C22.6033 23.4014 22.9628 23.2079 23.3392 23.1199C23.5077 23.0804 23.6863 23.0825 23.8496 23.0233C24.0176 22.9623 24.173 22.8577 24.3333 22.7793" stroke="#323249" stroke-linecap="round"/>
<path d="M20.6875 27.4947C20.9543 27.4947 21.1869 27.6339 21.3502 27.8336C21.4175 27.9159 21.5263 27.9063 21.6213 27.9302C21.8589 27.99 22.0858 27.9957 22.3292 27.9957C22.483 27.9957 22.6056 28.1431 22.781 28.1431C22.9175 28.1431 23.0291 28.3125 23.1576 28.3199C23.2003 28.3224 23.3416 28.3413 23.3835 28.3641C23.4747 28.4137 23.4986 28.4971 23.5726 28.5622C23.6715 28.6493 23.9425 28.761 24.0763 28.6883C24.1821 28.6308 24.2909 28.6938 24.3859 28.7259C24.5162 28.7701 24.6726 28.7598 24.7959 28.8062C24.8575 28.8293 24.9343 28.8729 24.9951 28.8799C25.0165 28.8823 25.049 28.9229 25.0553 28.9028C25.1072 28.7392 25.0984 28.5627 25.1122 28.3919C25.1576 27.8323 25.1776 27.2681 25.2461 26.7104C25.2647 26.5589 25.2529 26.5811 25.3566 26.5811C25.5079 26.5811 25.3872 29.0686 25.3867 29.1156" stroke="#323249" stroke-linecap="round"/>
<path d="M28.5508 30.1179C28.6794 30.2078 28.812 30.2942 28.9574 30.3259C29.0185 30.3391 29.1325 30.5577 29.093 30.56C29.0286 30.5637 28.824 30.5883 28.7801 30.5453C28.7612 30.5268 28.8681 30.5305 28.8821 30.5305C28.9645 30.5305 29.0766 30.5085 29.1532 30.5371C29.2423 30.5703 29.3738 30.6044 29.4243 30.691C29.4537 30.7412 29.5454 30.822 29.6051 30.8252C29.7531 30.8333 29.9874 30.8065 30.0871 30.9284C30.2188 31.0894 30.5796 31.0937 30.7648 31.1216C30.92 31.1449 30.9984 31.3672 31.1246 31.4507C31.2652 31.5436 31.4803 31.5471 31.6384 31.6226C31.7984 31.6989 31.9463 31.7759 32.117 31.8273C32.2184 31.8578 32.2687 31.9118 32.3396 31.9812C32.3938 32.0343 32.4548 32.0478 32.512 32.0925C32.5424 32.1163 32.6772 32.241 32.6776 32.2464C32.686 32.3485 32.7133 32.4462 32.8282 32.4462" stroke="#323249" stroke-linecap="round"/>
<path d="M32.8281 32.446C33.048 32.5569 33.3678 32.7997 33.6264 32.7997C33.8595 32.7997 34.1055 32.9107 34.3276 32.9831C34.5031 33.0403 34.6607 33.1807 34.8012 33.2876C34.9257 33.3823 35.0563 33.4241 35.2011 33.4841C35.2688 33.5121 35.3337 33.6302 35.3886 33.6838C35.4434 33.7375 35.5076 33.7729 35.5626 33.8246C35.6452 33.9023 35.6551 33.9769 35.7634 34.0375C35.8434 34.0822 35.9815 34.1296 36.068 34.1537C36.2942 34.217 36.4488 34.4251 36.6772 34.5025C36.8087 34.547 36.7883 34.7378 36.9399 34.8038C37.0606 34.8562 37.1674 34.9554 37.2997 34.9789C37.3514 34.9881 37.3895 35.011 37.4369 35.033C37.6073 35.1119 37.5598 35.2497 37.6177 35.403C37.6507 35.4904 37.8336 35.5716 37.9189 35.5995" stroke="#323249" stroke-linecap="round"/>
<path d="M33.8828 33.0945C34.0501 33.1212 34.1742 33.1475 34.328 33.2091C34.4486 33.2574 34.5969 33.3018 34.6961 33.3892C34.7715 33.4556 34.7823 33.5007 34.8334 33.5791C34.8804 33.6515 35.0946 33.6447 35.1781 33.6774C35.2409 33.7019 35.2776 33.6763 35.3053 33.7494C35.3267 33.806 35.3589 33.8667 35.4191 33.8902C35.5709 33.9496 35.7118 34.0548 35.8743 34.0981C35.9615 34.1214 36.0463 34.163 36.1286 34.1997C36.2661 34.2608 36.2008 34.4248 36.2692 34.5484C36.3366 34.67 36.4588 34.64 36.5638 34.6286C36.9944 34.5818 37.4072 35.0637 37.6783 35.3048" stroke="#323249" stroke-linecap="round"/>
<path d="M40.9902 37.8394C41.0426 38.102 41.169 38.1428 41.3969 38.2667C41.556 38.3532 41.5785 38.4269 41.6529 38.5909C41.7202 38.7389 41.9788 38.7738 42.0914 38.884C42.1358 38.9274 42.1787 38.9986 42.1968 39.0608C42.2062 39.0927 42.3183 39.1762 42.3458 39.2098C42.4358 39.3198 42.6041 39.3829 42.7072 39.4898C42.7969 39.5827 42.7865 39.7383 42.888 39.8434C42.9376 39.8948 43.0029 39.9528 43.0319 40.0202C43.0419 40.0435 43.0273 40.2106 43.0085 40.1971C42.9117 40.1273 42.9096 39.9104 42.811 39.8139C42.7659 39.7698 42.7579 39.6892 42.7072 39.66C42.5902 39.5927 42.5755 39.434 42.5265 39.326C42.4168 39.0844 42.3176 38.8453 42.1952 38.6056" stroke="#323249" stroke-linecap="round"/>
<path d="M39.3645 16.178C39.3658 16.1701 39.377 15.8496 39.4783 15.9487C39.5287 15.998 39.3134 16.201 39.2942 16.2238C39.2154 16.3174 39.0284 16.4694 38.8976 16.4694C38.8227 16.4694 38.9414 16.349 38.9579 16.3401C39.0515 16.2892 39.1313 16.233 39.2206 16.178C39.4482 16.0377 39.6175 15.8241 39.8666 15.7064C40.1623 15.5667 40.5261 15.5494 40.8004 15.3675C41.038 15.2099 41.2444 14.9659 41.4279 14.7486C41.5027 14.6601 41.5715 14.5729 41.6706 14.5112C41.709 14.4873 41.7502 14.4752 41.7894 14.4539C41.835 14.4291 41.826 14.3834 41.8647 14.3573C41.9693 14.2869 41.9998 14.1483 42.0605 14.0413C42.1019 13.9684 41.9822 14.1716 41.9668 14.205C41.8652 14.4259 41.6636 14.6135 41.5033 14.7928" stroke="#323249" stroke-linecap="round"/>
<path d="M49.5544 1.39587C49.3299 1.71545 49.061 2.00757 48.8608 2.32585C48.8205 2.38985 48.7306 2.52693 48.6461 2.52693C48.566 2.52693 48.5999 2.33231 48.5709 2.2684C48.5485 2.21924 48.4263 2.08506 48.3653 2.18941C48.272 2.34918 48.3323 2.65188 48.3323 2.83393C48.3323 3.0386 48.3323 3.24327 48.3323 3.44794C48.3323 3.61044 48.2599 3.80115 48.1928 3.94883C48.0748 4.20879 48.035 4.46638 48.035 4.75673C48.035 4.97156 48.002 5.18503 48.002 5.40305C48.002 5.72157 48.0288 6.05101 47.9763 6.36535C47.9581 6.47467 47.9796 6.58614 47.9671 6.69569C47.9495 6.85129 47.8893 7.00188 47.8699 7.15888C47.8218 7.5467 47.6831 7.91988 47.6387 8.31148" stroke="#323249" stroke-linecap="round"/>
<path d="M44.5996 12.0278C44.7215 11.7981 44.8851 11.6012 45.0694 11.4209C45.1635 11.3289 45.1607 11.174 45.2198 11.0583C45.2626 10.9747 45.3766 10.8755 45.4327 10.8069C45.524 10.6953 45.631 10.6048 45.7226 10.4928C45.7853 10.4162 45.7988 10.3089 45.8548 10.2253C45.909 10.1441 45.9996 10.0764 46.0695 10.008C46.258 9.82355 46.5313 9.67899 46.5484 9.37786C46.5714 8.97377 46.8495 8.61848 47.0585 8.29707C47.1442 8.16535 47.1846 7.99215 47.2677 7.85901C47.329 7.7609 47.4042 7.67092 47.4567 7.56817C47.5706 7.34543 47.6671 7.07981 47.721 6.83747C47.7503 6.70571 47.6915 6.52659 47.7448 6.40479C47.7949 6.29052 47.8366 6.15886 47.8366 6.03316C47.8366 5.93719 47.9027 5.85309 47.9027 5.75848C47.9027 5.68307 47.9027 5.60767 47.9027 5.53226C47.9027 5.06044 47.9357 4.59506 47.9357 4.12652C47.9357 4.03324 47.9579 3.90426 47.9944 3.81952C48.0648 3.65587 48.0719 3.47769 48.1008 3.30067C48.1183 3.19372 48.1879 3.1042 48.2256 3.00444C48.3951 2.55687 48.3594 1.98581 48.6293 1.58972" stroke="#323249" stroke-linecap="round"/>
<path d="M48.1338 4.49817C48.0919 4.79578 48.067 5.0653 47.943 5.33838C47.9143 5.40161 47.9232 5.47076 47.8953 5.53228C47.8528 5.62577 47.8027 5.75547 47.7778 5.85544C47.756 5.94324 47.7094 6.09624 47.7044 6.1786C47.7004 6.24582 47.7254 6.34253 47.6971 6.40481C47.6418 6.52648 47.6954 6.73094 47.6127 6.8321C47.5406 6.9203 47.5971 7.16621 47.5466 7.27734C47.4706 7.44472 47.424 7.6714 47.3668 7.85184C47.1631 8.49381 46.9325 9.05989 46.5227 9.60408C46.4415 9.71192 46.3824 9.83112 46.2841 9.92724C46.213 9.99681 46.1296 10.068 46.0859 10.1535" stroke="#323249" stroke-linecap="round"/>
<path d="M45.8789 43.8269C45.8789 43.917 45.8934 44.0068 45.8934 44.0959C45.8934 44.1197 45.8898 44.1376 45.9046 44.1557C45.9346 44.1924 45.9518 44.1962 46.0011 44.21C46.0521 44.2242 46.085 44.3116 46.1072 44.3508C46.1475 44.4217 46.2113 44.4757 46.2487 44.549C46.2754 44.6012 46.3247 44.6585 46.3565 44.7079C46.3874 44.7559 46.3777 44.8266 46.4144 44.8684C46.4342 44.891 46.4589 44.909 46.4723 44.9384C46.5008 45.0013 46.5497 45.0467 46.5703 45.1154C46.5923 45.1886 46.5873 45.2644 46.6033 45.3348C46.6213 45.4142 46.6683 45.4862 46.703 45.5598C46.7586 45.6777 46.7783 45.7604 46.7971 45.8925C46.8261 46.0964 46.8855 46.287 46.9531 46.4778C46.9672 46.5178 46.984 46.5492 47.0077 46.5848C47.0476 46.6444 47.0389 46.7169 47.0584 46.7845C47.0887 46.8899 47.1265 46.9919 47.1557 47.0976C47.1932 47.2334 47.182 47.3782 47.2184 47.5153C47.2912 47.79 47.2165 48.0948 47.3406 48.3578" stroke="#323249" stroke-linecap="round"/>
<path d="M45.8223 43.8976C45.9047 44.0436 46.0393 44.2528 46.0393 44.4285C46.0393 44.4748 46.0816 44.5339 46.1189 44.5631C46.1633 44.5978 46.1852 44.6999 46.2018 44.7503C46.2489 44.8937 46.3237 45.0077 46.3931 45.1436C46.4356 45.2267 46.4568 45.3237 46.4952 45.4063C46.5172 45.4536 46.5186 45.5043 46.5378 45.5526C46.5521 45.5886 46.5748 45.6286 46.5748 45.6674C46.5748 45.7031 46.6018 45.7308 46.6038 45.7666C46.6051 45.7925 46.5965 45.8273 46.607 45.8515C46.6376 45.9228 46.6279 45.9989 46.6689 46.071C46.7009 46.1273 46.7062 46.1998 46.726 46.2606C46.742 46.3098 46.7733 46.3416 46.7919 46.3825C46.889 46.5962 46.9498 46.8284 47.0524 47.0409C47.0959 47.131 47.0908 47.2544 47.0958 47.3524C47.1007 47.4476 47.1569 47.559 47.2043 47.6426C47.2272 47.6828 47.2134 47.7624 47.2188 47.807C47.2262 47.8679 47.2261 47.9284 47.2261 47.9895C47.2261 48.0761 47.255 48.1368 47.255 48.2302" stroke="#323249" stroke-linecap="round"/>
<path d="M44.8438 11.359C44.884 11.2616 44.8953 11.1941 44.8983 11.0923C44.8996 11.0467 44.9171 11.0094 44.9488 10.9816C45.0032 10.9336 45.0563 10.8707 45.0942 10.8077C45.1121 10.7779 45.146 10.7609 45.1709 10.7366C45.2136 10.6948 45.2446 10.6289 45.28 10.5805C45.3787 10.4453 45.4829 10.3136 45.599 10.1933C45.705 10.0834 45.7731 9.9518 45.8838 9.84357C45.9398 9.78879 45.9948 9.73016 46.0473 9.67365C46.1226 9.59271 46.1269 9.46912 46.2028 9.38914C46.2552 9.33396 46.3078 9.23931 46.3442 9.1718C46.4421 8.99026 46.5393 8.79498 46.6592 8.62649C46.7453 8.50561 46.8409 8.3913 46.9278 8.27085C47.0721 8.07087 47.1541 7.85258 47.2307 7.62083C47.5622 6.61911 47.7918 5.58942 48.0426 4.56628" stroke="#323249" stroke-linecap="round"/>
<path d="M48.4794 2.0946C48.3583 2.11655 48.2613 2.1119 48.2613 2.23686C48.2613 2.2944 48.2279 2.34393 48.2249 2.3969C48.2199 2.48514 48.2249 2.5752 48.2249 2.66363C48.2249 2.78339 48.1388 2.90301 48.1341 3.02322C48.1322 3.07186 48.0977 3.11954 48.0977 3.17041C48.0977 3.23001 48.0977 3.28962 48.0977 3.34922C48.0977 3.60746 48.0694 4.37548 48.026 4.12076C47.9979 3.95587 48.0795 3.79632 48.0795 3.63274C48.0795 3.52412 48.0859 3.41387 48.0755 3.30575C48.0723 3.27275 48.025 2.99851 48.025 3.10422C48.025 3.28093 47.9887 3.46621 47.9887 3.64163C47.9887 3.76018 47.9887 3.87873 47.9887 3.99727C47.9887 4.18707 47.9523 4.37078 47.9523 4.55839C47.9523 4.82689 47.8069 5.07307 47.8069 5.33981C47.8069 5.45759 47.7873 5.59915 47.7615 5.7152C47.7394 5.81453 47.7342 5.92647 47.7342 6.02836C47.7342 6.11504 47.7222 6.19984 47.716 6.2862C47.6917 6.6262 47.6844 6.96382 47.6797 7.30471" stroke="#323249" stroke-linecap="round"/>
<path d="M46.8711 8.52917C46.8926 8.40021 46.969 8.30599 47.0217 8.19245C47.0953 8.03413 47.1656 7.83346 47.1724 7.65921C47.1774 7.53244 47.2688 7.42546 47.2688 7.29759C47.2688 7.11907 47.293 6.93356 47.3385 6.76042C47.349 6.72048 47.3706 6.68593 47.3827 6.64709C47.4001 6.59109 47.4044 6.53044 47.4315 6.47742C47.5119 6.32015 47.4685 6.11955 47.5206 5.95399C47.5546 5.84593 47.5626 5.72513 47.5942 5.614C47.6397 5.45437 47.6236 5.28872 47.6451 5.1253C47.6975 4.72831 47.8417 4.33919 47.8721 3.93761C47.8898 3.7044 47.981 3.49596 48.0429 3.274C48.1251 2.97891 48.1635 2.67394 48.221 2.3739" stroke="#323249" stroke-linecap="round"/>
<path d="M42.8176 22.1226C43.5703 24.0557 44.0644 26.0428 44.4228 28.0806C44.5665 28.8982 44.4734 27.823 44.4718 27.721C44.4186 24.4423 43.6077 21.2224 43.5896 17.9508C43.5855 17.2292 43.6876 16.5132 43.6876 15.793C43.6876 15.7632 43.642 15.1429 43.6753 15.2176C43.9833 15.9063 43.8357 17.0744 43.7366 17.771C43.6182 18.6027 43.3361 19.4005 43.1975 20.2285C43.1844 20.3064 43.1484 20.8461 43.1484 20.7979C43.1484 18.8879 43.6239 16.9496 44.19 15.1337C44.5353 14.0259 45.1334 13.0699 45.1334 11.9089C45.1334 11.3662 45.1334 10.3317 45.1334 11.4414C45.1334 11.8302 45.0369 11.964 44.8026 12.2506C44.5848 12.517 44.3123 12.6286 44.1409 13.0058C43.96 13.4042 43.4889 13.5646 43.3445 14.0308C43.0883 14.8579 42.3308 15.4847 41.6536 16.0268C41.4506 16.1892 41.1899 16.2826 41.0042 16.4643C40.7944 16.6696 40.6734 17.0261 40.4528 17.2615C39.8868 17.8656 38.7932 18.1358 38.137 18.6941C37.1817 19.5068 36.2125 20.2687 35.0615 20.8039C34.0177 21.2893 33.0701 21.9833 32.0105 22.4223C30.8051 22.9217 29.515 23.1055 28.2611 23.4413C28.0514 23.4974 25.6832 23.8955 26.2393 23.1536C26.4417 22.8836 26.9612 22.6218 27.2686 22.5182C28.5826 22.0753 30.3778 22.45 31.7225 22.4942C34.6111 22.5894 37.6478 22.1718 40.3058 20.9898C40.9075 20.7222 41.4572 20.3645 42.0457 20.0727C42.1819 20.0051 42.6576 19.7144 42.4684 20.0847C42.119 20.7684 41.4543 21.4176 40.9552 21.9788C39.6137 23.4871 38.1435 24.7622 36.5563 26.0067C36.1929 26.2917 35.844 26.6868 35.4352 26.9118C35.4252 26.9173 35.1481 27.0035 35.233 27.0616C35.6334 27.3358 37.5099 25.1985 37.7571 24.9638C38.495 24.2632 39.2954 23.5419 40.4038 23.8968C40.6492 23.9754 40.833 24.3037 40.9797 24.4902C41.8371 25.5808 42.7766 26.6429 43.8224 27.5651C44.8773 28.4955 45.7715 29.1926 46.4996 30.4063C46.7213 30.7758 47.6542 31.5866 46.8427 31.8209C44.8482 32.3967 42.7934 31.4652 41.5311 29.9927C41.1363 29.5322 41.307 30.5352 41.3228 30.682C41.453 31.8921 41.785 33.0626 42.2662 34.1825C42.9556 35.7867 43.7756 37.6581 44.8639 39.0496C45.5461 39.9219 46.4659 40.448 46.9346 41.4951C47.0023 41.6462 47.5281 43.4971 47.0449 43.3532C46.4533 43.1771 46.0448 42.526 45.6848 42.0825C45.2159 41.5048 44.7311 40.9399 44.2941 40.3383C43.4604 39.1903 43.2587 37.9744 43.2587 36.5921C43.2587 34.6515 43.4169 32.7542 43.5834 30.8259C43.6408 30.1617 43.7403 29.5217 43.8959 28.8718C43.9505 28.6437 44.1462 28.3459 44.1716 28.1226C44.185 28.0048 43.2632 28.0572 43.222 28.0566C41.5582 28.0345 39.9376 27.7419 38.3085 27.4333C34.7582 26.7606 31.1657 25.8963 27.5504 26.4383C25.6623 26.7213 23.4206 27.4589 21.5219 26.8159C21.0172 26.645 20.3738 26.5462 19.8371 26.5462C19.5156 26.5462 19.7993 26.3894 19.9351 26.3304C21.1549 25.8 22.9355 26.1146 24.1808 26.1146C25.0528 26.1146 25.9646 26.1905 26.8029 25.9048C27.7869 25.5695 28.5775 24.9225 29.3761 24.2924C30.6441 23.292 31.95 22.2742 33.297 21.3794C33.9725 20.9306 34.7392 20.5869 35.38 20.0967C35.8648 19.7259 36.453 19.5828 36.9607 19.2635C37.2642 19.0726 37.5333 18.6613 37.7939 18.4064C38.151 18.057 38.5302 17.8388 38.964 17.5912C39.911 17.0508 41.1604 16.7311 41.9354 15.9728" stroke="#323249" stroke-width="3" stroke-linecap="round"/>
</svg>
